<svg xmlns="http://www.w3.org/2000/svg" width="195" height="195" fill="none" viewBox="0 0 195 195"><path fill="#fff" d="M97.5 162.5C133.331 162.5 162.5 133.331 162.5 97.5C162.5 61.6688 133.331 32.5 97.5 32.5C61.6688 32.5 32.5 61.6688 32.5 97.5C32.5 133.331 61.6688 162.5 97.5 162.5ZM81.25 60.9375L130 97.5L81.25 134.062V60.9375Z" opacity=".3"/><path fill="#fff" d="M97.5 178.75C142.35 178.75 178.75 142.35 178.75 97.5C178.75 52.65 142.35 16.25 97.5 16.25C52.65 16.25 16.25 52.65 16.25 97.5C16.25 142.35 52.65 178.75 97.5 178.75ZM97.5 32.5C133.331 32.5 162.5 61.6688 162.5 97.5C162.5 133.331 133.331 162.5 97.5 162.5C61.6688 162.5 32.5 133.331 32.5 97.5C32.5 61.6688 61.6688 32.5 97.5 32.5ZM81.25 60.9375V134.062L130 97.5L81.25 60.9375Z"/></svg>