<svg width="239" height="239" viewBox="0 0 239 239" fill="none" xmlns="http://www.w3.org/2000/svg">
<path fill-rule="evenodd" clip-rule="evenodd" d="M127.615 0.21875L126.672 14.2496L129.147 14.4159L130.09 0.385028L127.615 0.21875ZM86.8111 18.0409L87.7278 4.261L89.5403 3.78097L94.5086 11.1733L95.1667 2.29087L96.9792 1.81084L104.54 13.3456L101.557 14.1356L97.1003 6.7693L96.5533 15.4607L94.7975 15.9258L90.058 8.63442L89.7942 17.2508L86.8111 18.0409ZM71.1549 21.31C70.6837 21.5609 70.1485 21.7055 69.5495 21.7441C68.9505 21.7826 68.3923 21.7036 67.8747 21.5071L68.3977 22.4898L66.208 23.6552L61.5741 14.9482L63.7638 13.7829L64.5438 15.2484C64.5458 14.6425 64.6965 14.0387 64.9957 13.437C65.3011 12.8467 65.7756 12.3803 66.4193 12.0377C67.1205 11.6646 67.8647 11.4971 68.6521 11.5353C69.4279 11.5797 70.1745 11.8461 70.8917 12.3346C71.6089 12.8232 72.2245 13.5502 72.7384 14.5157C73.2522 15.4812 73.5145 16.4037 73.5252 17.283C73.5244 18.1684 73.3173 18.9571 72.9039 19.6491C72.485 20.3588 71.9021 20.9124 71.1549 21.31ZM69.5688 19.4107C70.0286 19.166 70.3609 18.8342 70.5658 18.4155C70.7653 18.0143 70.8561 17.5751 70.8381 17.0979C70.8201 16.6207 70.6949 16.1637 70.4625 15.7269C70.1138 15.0718 69.6217 14.6183 68.9862 14.3665C68.3392 14.1208 67.6881 14.1723 67.0329 14.521C66.6421 14.729 66.3351 15.0252 66.1119 15.4095C65.8772 15.7999 65.7542 16.2341 65.7431 16.712C65.7266 17.2075 65.859 17.7197 66.1404 18.2484L66.8011 19.4898C67.2888 19.658 67.7686 19.7419 68.2404 19.7415C68.7007 19.7473 69.1435 19.637 69.5688 19.4107ZM52.7679 32.5199L54.5383 34.7801L55.5377 33.9973C55.1655 33.0153 55.0009 32.1188 55.0438 31.3079C55.0765 30.5049 55.2706 29.8236 55.6261 29.264L54.8433 28.2645L53.4441 29.3605L50.4212 25.5011C49.811 24.722 49.1139 24.2756 48.3301 24.1618C47.5441 24.0662 46.8026 24.2914 46.1055 24.8374C45.6647 25.1827 45.353 25.5343 45.1704 25.8924C44.9775 26.2585 44.8599 26.6152 44.8177 26.9625L46.0341 28.5155C46.1201 28.2662 46.2415 28.0306 46.3983 27.8085C46.5449 27.5944 46.7566 27.379 47.0333 27.1622C47.3511 26.9133 47.6683 26.822 47.9848 26.8883C48.2992 26.9729 48.5928 27.1895 48.8658 27.538L51.4913 30.89L49.3386 32.5761L50.6153 34.2059L52.7679 32.5199ZM39.8838 44.5368C39.3881 45.0716 38.8951 45.4312 38.4045 45.6157C37.914 45.8002 37.4946 45.9175 37.1464 45.9676L35.4704 44.4143C35.8819 44.3341 36.2958 44.194 36.7121 43.9939C37.1194 43.8034 37.5311 43.4837 37.9471 43.0348C38.2834 42.6719 38.5069 42.2488 38.6175 41.7655C38.7193 41.2917 38.7015 40.8225 38.5641 40.3578C38.4266 39.8931 38.1621 39.4793 37.7706 39.1165C37.1785 38.5677 36.5144 38.3073 35.7784 38.3353C35.0423 38.3633 34.4043 38.6685 33.8644 39.2511C33.4484 39.6999 33.1561 40.1303 32.9875 40.5421C32.8196 40.9723 32.7113 41.3956 32.6626 41.8121L31.0009 40.2721C31.0149 39.9122 31.1 39.4851 31.2563 38.9909C31.4221 38.5054 31.7528 37.9953 32.2485 37.4605C32.93 36.7252 33.7082 36.2303 34.583 35.9759C35.4586 35.7399 36.3378 35.7204 37.2206 35.9172C38.104 36.1323 38.8848 36.5542 39.5629 37.1826C40.069 37.6517 40.4672 38.1894 40.7575 38.7956C41.0388 39.4115 41.1969 40.0551 41.2316 40.7263C41.2759 41.4065 41.1907 42.0731 40.9759 42.7262C40.7523 43.3889 40.3883 43.9924 39.8838 44.5368ZM26.0314 60.8423C26.9672 60.6396 27.7065 60.1167 28.2493 59.2737C28.6088 58.7154 28.7817 58.1221 28.7681 57.4939C28.7474 56.8766 28.6484 56.3328 28.4711 55.8625L33.1842 58.897L34.527 56.8114L22.7033 49.1987L21.3605 51.2842L26.6155 54.6677C26.7959 55.109 26.9043 55.566 26.9408 56.0386C26.9701 56.5221 26.865 56.95 26.6253 57.3222C26.3222 57.7929 25.9493 58.0716 25.5064 58.1581C25.0565 58.2556 24.5523 58.1246 23.994 57.7651L19.1718 54.6836L17.829 56.7691L22.9198 60.0468C24.0584 60.7799 25.0956 61.0451 26.0314 60.8423ZM17.1824 90.5294C17.0285 91.1217 16.796 91.6801 16.4848 92.2047C16.1736 92.7292 15.789 93.1741 15.3309 93.5394C14.8695 93.9173 14.346 94.1715 13.7606 94.3019C13.1844 94.4482 12.5435 94.4297 11.8378 94.2463C11.0942 94.0531 10.5006 93.6971 10.0569 93.1783C9.62256 92.6753 9.33273 92.082 9.18743 91.3985C9.05473 90.7183 9.05485 90.0188 9.18779 89.2999L3.12705 92.5887L4.02579 89.1293L10.3497 86.0704L5.17008 84.7247L5.85273 82.0971L18.5182 85.3876L17.1824 90.5294ZM15.3781 87.3767L12.1834 86.5468C12.004 86.823 11.8353 87.1357 11.6773 87.4848C11.5287 87.8498 11.4053 88.2213 11.307 88.5994C11.1106 89.3555 11.1063 89.9934 11.2942 90.5131C11.4914 91.0487 11.8735 91.3901 12.4406 91.5374C13.0581 91.6979 13.5614 91.573 13.9505 91.1629C14.3489 90.7686 14.6365 90.2312 14.8133 89.5507L15.3781 87.3767ZM9.78828 113.354C10.2435 112.688 10.4985 111.875 10.5533 110.913C10.6081 109.951 10.4099 109.079 9.95888 108.297C9.52082 107.515 8.91752 106.887 8.14896 106.413C7.3804 105.939 6.51513 105.675 5.55315 105.62C4.56517 105.564 3.67436 105.748 2.88072 106.172C2.08634 106.609 1.44558 107.212 0.95843 107.98C0.47054 108.76 0.198835 109.638 0.143314 110.613C0.101118 111.354 0.199121 112.038 0.437323 112.665C0.687785 113.305 0.94063 113.789 1.19586 114.116L3.49571 114.267C3.2167 113.899 2.95086 113.414 2.69817 112.813C2.44549 112.212 2.33951 111.554 2.38022 110.839C2.42316 110.085 2.66093 109.459 3.09353 108.962C3.52614 108.465 4.07764 108.17 4.74803 108.078L4.34161 115.215L5.39459 115.275C6.35658 115.33 7.2123 115.189 7.96175 114.854C8.72347 114.532 9.33231 114.032 9.78828 113.354ZM7.91439 109.158C8.2677 109.596 8.42695 110.12 8.39216 110.731C8.36033 111.29 8.15559 111.793 7.77794 112.241C7.4133 112.69 6.8785 112.921 6.17355 112.933L6.44228 108.214C7.07038 108.406 7.56109 108.721 7.91439 109.158ZM10.8726 131.254C10.997 132.21 10.8972 133.057 10.5731 133.795C10.2507 134.546 9.745 135.15 9.05608 135.607C8.38176 136.076 7.56686 136.372 6.61138 136.497L5.56552 136.633L4.64274 129.544C4.00104 129.759 3.51367 130.151 3.18064 130.719C2.8476 131.288 2.72983 131.947 2.82732 132.696C2.91976 133.406 3.14584 134.033 3.50554 134.577C3.86524 135.121 4.21626 135.548 4.55862 135.858L2.27069 136.136C1.9592 135.862 1.62109 135.433 1.25635 134.85C0.906197 134.279 0.683218 133.625 0.587411 132.889C0.461348 131.92 0.565712 131.007 0.900504 130.15C1.23698 129.305 1.75502 128.594 2.45463 128.017C3.15592 127.453 3.99722 127.107 4.97852 126.98C5.934 126.855 6.83329 126.955 7.67638 127.278C8.51947 127.602 9.22863 128.107 9.80386 128.794C10.392 129.479 10.7483 130.299 10.8726 131.254ZM8.71525 131.476C8.63625 130.869 8.38264 130.384 7.95441 130.019C7.52618 129.655 6.98563 129.436 6.33278 129.364L6.94292 134.051C7.63344 133.908 8.1163 133.583 8.3915 133.074C8.67961 132.564 8.78753 132.031 8.71525 131.476ZM4.86825 152.676L18.3718 148.751L17.6794 146.369L4.17584 150.294L4.86825 152.676ZM22.9846 178.477L20.9749 179.683L17.9499 174.642L19.9596 173.436L22.9846 178.477ZM43.4822 211.453L55.2991 204.306L52.9419 202.314L45.7302 207.037L48.9882 198.974L47.6007 197.802L40.1652 202.336L43.647 194.462L41.2897 192.47L36.1716 205.277L37.6039 206.487L45.2595 201.935L42.0499 210.243L43.4822 211.453ZM66.9524 215.26C67.428 215.503 67.8533 215.858 68.2282 216.327C68.6031 216.796 68.8584 217.298 68.9941 217.835L69.4996 216.843L71.7096 217.97L67.2311 226.757L65.021 225.631L65.7749 224.152C65.2772 224.498 64.6961 224.72 64.0315 224.82C63.3728 224.908 62.7186 224.787 62.0689 224.456C61.3613 224.095 60.7974 223.581 60.3774 222.914C59.9691 222.253 59.7595 221.488 59.7486 220.621C59.7378 219.753 59.9807 218.832 60.4774 217.857C60.974 216.883 61.5795 216.139 62.2939 215.626C63.0198 215.119 63.7848 214.837 64.5889 214.779C65.4105 214.716 66.1983 214.876 66.9524 215.26ZM66.3051 217.649C65.8411 217.412 65.3788 217.33 64.9182 217.402C64.4751 217.469 64.0632 217.646 63.6825 217.934C63.3018 218.222 62.9991 218.587 62.7744 219.028C62.4374 219.689 62.3479 220.352 62.5058 221.017C62.6754 221.688 63.0908 222.192 63.7521 222.529C64.1465 222.73 64.5652 222.812 65.008 222.775C65.4625 222.743 65.8887 222.595 66.2867 222.33C66.7022 222.06 67.046 221.658 67.3179 221.124L67.9565 219.871C67.8147 219.375 67.6084 218.934 67.3377 218.547C67.0786 218.167 66.7344 217.867 66.3051 217.649ZM86.6774 223.902L87.5148 221.156L86.3004 220.785C85.7091 221.653 85.0689 222.302 84.3798 222.732C83.7031 223.165 83.0336 223.397 82.3712 223.426L82.0009 224.641L83.701 225.159L82.2713 229.848C81.9827 230.795 82.0164 231.622 82.3724 232.329C82.7447 233.028 83.3543 233.507 84.2012 233.765C84.7367 233.928 85.2036 233.982 85.6017 233.926C86.0122 233.875 86.3719 233.766 86.6807 233.602L87.256 231.715C87.0025 231.787 86.7398 231.823 86.4679 231.822C86.2085 231.824 85.9107 231.774 85.5744 231.672C85.1883 231.554 84.9317 231.347 84.8045 231.049C84.6937 230.743 84.7028 230.378 84.8319 229.955L86.0736 225.882L88.6892 226.68L89.2929 224.699L86.6774 223.902ZM103.911 227.572C104.633 227.671 105.211 227.869 105.643 228.165C106.075 228.461 106.412 228.738 106.653 228.994L106.341 231.258C106.039 230.967 105.687 230.708 105.284 230.482C104.895 230.257 104.397 230.103 103.791 230.019C103.3 229.952 102.826 230.011 102.366 230.198C101.92 230.386 101.545 230.669 101.243 231.048C100.941 231.427 100.754 231.881 100.681 232.41C100.571 233.21 100.738 233.903 101.183 234.49C101.628 235.077 102.243 235.425 103.03 235.534C103.636 235.617 104.157 235.61 104.591 235.512C105.04 235.403 105.449 235.249 105.818 235.05L105.508 237.295C105.205 237.49 104.807 237.665 104.312 237.82C103.819 237.962 103.212 237.984 102.489 237.884C101.496 237.747 100.645 237.393 99.9346 236.822C99.2394 236.24 98.7194 235.531 98.3746 234.695C98.0446 233.847 97.9427 232.966 98.0689 232.05C98.1632 231.366 98.3755 230.732 98.706 230.146C99.0493 229.563 99.4861 229.064 100.016 228.651C100.548 228.225 101.143 227.913 101.802 227.714C102.473 227.518 103.176 227.47 103.911 227.572ZM125.212 229.576C124.51 228.925 123.658 228.619 122.656 228.657C121.992 228.683 121.407 228.881 120.9 229.252C120.406 229.623 120.017 230.016 119.733 230.431L119.518 224.83L117.04 224.925L117.579 238.977L120.058 238.882L119.818 232.636C120.076 232.235 120.389 231.885 120.755 231.584C121.134 231.283 121.545 231.124 121.987 231.107C122.547 231.085 122.989 231.231 123.314 231.544C123.652 231.857 123.833 232.345 123.859 233.009L124.098 238.727L126.576 238.632L126.344 232.581C126.292 231.228 125.915 230.226 125.212 229.576ZM154.609 219.81C155.183 219.597 155.774 219.467 156.382 219.422C156.99 219.376 157.575 219.436 158.137 219.602C158.711 219.764 159.22 220.047 159.662 220.452C160.112 220.84 160.464 221.376 160.719 222.059C160.987 222.779 161.035 223.47 160.864 224.131C160.701 224.775 160.381 225.352 159.904 225.863C159.423 226.362 158.85 226.763 158.185 227.066L164.353 230.147L161.004 231.394L154.872 227.965L156.739 232.981L154.194 233.927L149.631 221.663L154.609 219.81ZM153.06 223.096L154.212 226.189C154.541 226.178 154.894 226.137 155.27 226.066C155.654 225.979 156.03 225.867 156.396 225.731C157.128 225.458 157.653 225.096 157.971 224.645C158.297 224.176 158.358 223.667 158.153 223.118C157.931 222.52 157.54 222.179 156.981 222.095C156.43 221.995 155.824 222.067 155.165 222.313L153.06 223.096ZM177.551 212.786C176.745 212.795 175.932 213.052 175.112 213.558C174.293 214.065 173.692 214.727 173.309 215.545C172.92 216.352 172.752 217.206 172.804 218.108C172.856 219.009 173.135 219.87 173.641 220.69C174.162 221.531 174.823 222.156 175.626 222.563C176.439 222.963 177.3 223.143 178.209 223.102C179.128 223.054 180.003 222.774 180.834 222.26C181.465 221.87 181.97 221.398 182.346 220.843C182.728 220.271 182.979 219.787 183.101 219.39L181.906 217.419C181.765 217.859 181.52 218.354 181.172 218.906C180.824 219.458 180.346 219.922 179.736 220.298C179.094 220.695 178.445 220.859 177.79 220.789C177.135 220.72 176.577 220.437 176.117 219.94L182.198 216.182L181.644 215.285C181.137 214.465 180.532 213.845 179.827 213.423C179.127 212.983 178.368 212.771 177.551 212.786ZM175.187 216.726C175.343 216.186 175.682 215.755 176.202 215.434C176.679 215.139 177.208 215.018 177.792 215.071C178.369 215.113 178.864 215.419 179.278 215.989L175.257 218.474C175.055 217.849 175.031 217.267 175.187 216.726ZM191.598 201.638C192.309 200.988 193.061 200.585 193.851 200.427C194.651 200.261 195.436 200.329 196.206 200.631C196.976 200.915 197.686 201.413 198.336 202.125L199.047 202.904L193.767 207.723C194.311 208.126 194.912 208.3 195.568 208.247C196.225 208.194 196.833 207.913 197.39 207.404C197.919 206.921 198.304 206.377 198.543 205.77C198.783 205.163 198.931 204.631 198.989 204.173L200.529 205.888C200.482 206.301 200.325 206.824 200.056 207.456C199.789 208.071 199.381 208.628 198.832 209.129C198.111 209.787 197.303 210.225 196.409 210.442C195.523 210.651 194.644 210.634 193.77 210.391C192.906 210.14 192.141 209.649 191.473 208.918C190.824 208.206 190.39 207.412 190.172 206.536C189.954 205.66 189.961 204.789 190.194 203.924C190.418 203.049 190.886 202.287 191.598 201.638ZM193.016 203.278C192.564 203.691 192.312 204.177 192.258 204.737C192.205 205.297 192.336 205.865 192.651 206.442L196.142 203.255C195.629 202.771 195.086 202.562 194.511 202.628C193.928 202.684 193.43 202.901 193.016 203.278ZM212.594 194.279L201.638 185.464L200.083 187.397L211.039 196.212L212.594 194.279ZM223.35 164.644L225.49 165.599L223.093 170.968L220.953 170.012L223.35 164.644ZM238.621 128.946L225.991 123.36L225.71 126.433L233.714 129.635L225.24 131.588L225.074 133.396L233.051 136.89L224.604 138.551L224.323 141.624L237.751 138.477L237.921 136.61L229.803 132.946L238.451 130.813L238.621 128.946ZM228.287 107.533C228.213 107.004 228.261 106.452 228.43 105.876C228.599 105.3 228.865 104.803 229.227 104.384L228.124 104.538L227.78 102.082L237.548 100.714L237.892 103.171L236.248 103.401C236.817 103.611 237.332 103.959 237.795 104.447C238.245 104.936 238.52 105.542 238.621 106.264C238.731 107.05 238.633 107.807 238.327 108.533C238.02 109.247 237.514 109.857 236.809 110.363C236.104 110.869 235.21 111.198 234.127 111.35C233.043 111.502 232.087 111.432 231.257 111.14C230.426 110.836 229.756 110.371 229.248 109.745C228.725 109.109 228.404 108.371 228.287 107.533ZM230.615 106.694C230.687 107.21 230.885 107.636 231.208 107.972C231.517 108.297 231.898 108.533 232.353 108.68C232.807 108.826 233.279 108.865 233.769 108.797C234.504 108.694 235.099 108.387 235.553 107.877C236.006 107.353 236.181 106.724 236.078 105.989C236.017 105.55 235.844 105.16 235.559 104.819C235.273 104.465 234.907 104.2 234.462 104.026C234.002 103.84 233.476 103.789 232.883 103.872L231.49 104.067C231.165 104.468 230.921 104.89 230.76 105.333C230.597 105.763 230.548 106.217 230.615 106.694ZM224.062 86.4154L221.332 87.3034L221.725 88.5107C222.775 88.4977 223.673 88.6505 224.421 88.9688C225.164 89.2749 225.737 89.6908 226.141 90.2167L227.348 89.824L226.798 88.1338L231.46 86.6175C232.401 86.3114 233.06 85.8097 233.435 85.1125C233.795 84.4069 233.837 83.633 233.564 82.7911C233.39 82.2586 233.167 81.8452 232.893 81.5509C232.615 81.2441 232.321 81.0114 232.009 80.8527L230.133 81.4628C230.338 81.629 230.517 81.8238 230.672 82.0473C230.823 82.2584 230.953 82.5311 231.062 82.8655C231.186 83.2493 231.163 83.5786 230.993 83.8532C230.805 84.1195 230.501 84.3211 230.08 84.458L226.031 85.775L225.185 83.1747L223.217 83.8151L224.062 86.4154ZM217.191 70.1921C216.858 69.5432 216.69 68.9566 216.684 68.4326C216.679 67.9085 216.713 67.4744 216.785 67.1301L218.819 66.0882C218.753 66.5023 218.743 66.9392 218.788 67.3988C218.828 67.8468 218.987 68.3432 219.266 68.8878C219.491 69.3282 219.812 69.6832 220.228 69.9529C220.638 70.2109 221.085 70.3551 221.569 70.3853C222.053 70.4155 222.532 70.3089 223.007 70.0656C223.726 69.6975 224.198 69.163 224.424 68.462C224.65 67.761 224.582 67.057 224.22 66.3501C223.941 65.8054 223.637 65.3832 223.308 65.0836C222.961 64.7784 222.601 64.5315 222.226 64.343L224.243 63.31C224.576 63.4466 224.948 63.673 225.359 63.9892C225.758 64.3115 226.124 64.7971 226.456 65.446C226.913 66.3384 227.111 67.2391 227.05 68.1481C226.972 69.0515 226.689 69.8841 226.201 70.6459C225.696 71.402 225.032 71.9908 224.209 72.4123C223.595 72.7269 222.953 72.9166 222.284 72.9814C221.609 73.0345 220.951 72.9623 220.308 72.7648C219.654 72.5732 219.057 72.2645 218.517 71.8389C217.971 71.4016 217.529 70.8527 217.191 70.1921ZM206.624 51.5893C206.494 52.5379 206.731 53.4117 207.337 54.2106C207.738 54.7397 208.236 55.1056 208.831 55.3082C209.418 55.5004 209.963 55.5939 210.466 55.5887L205.999 58.9755L207.498 60.952L218.703 52.4554L217.204 50.4789L212.224 54.2552C211.748 54.2733 211.281 54.2185 210.825 54.0907C210.361 53.9525 209.995 53.707 209.727 53.3542C209.389 52.9081 209.255 52.4622 209.326 52.0165C209.388 51.5604 209.684 51.1318 210.213 50.7306L214.762 47.2573L213.263 45.2808L208.438 48.9391C207.359 49.7573 206.755 50.6407 206.624 51.5893ZM181.771 33.0962C181.268 32.7486 180.823 32.3387 180.437 31.8665C180.051 31.3944 179.764 30.8805 179.578 30.3249C179.382 29.7618 179.322 29.183 179.401 28.5883C179.461 27.997 179.698 27.4012 180.112 26.8011C180.549 26.1689 181.087 25.7334 181.726 25.4945C182.348 25.2589 183.004 25.1901 183.696 25.2879C184.381 25.3965 185.038 25.6365 185.667 26.0079L184.656 19.1869L187.598 21.2173L188.303 28.2067L191.343 23.8025L193.577 25.3447L186.143 36.1141L181.771 33.0962ZM185.351 32.4823L187.226 29.7658C187.028 29.5026 186.793 29.2369 186.519 28.9688C186.227 28.7041 185.92 28.4607 185.599 28.2388C184.956 27.795 184.358 27.5723 183.805 27.5706C183.235 27.5722 182.783 27.8141 182.45 28.2963C182.088 28.8214 182.032 29.337 182.284 29.8431C182.518 30.3525 182.924 30.8069 183.503 31.2064L185.351 32.4823ZM162.867 18.325C163.336 18.9807 164.013 19.4993 164.898 19.8806C165.783 20.2619 166.67 20.3748 167.559 20.2192C168.444 20.0757 169.24 19.7242 169.949 19.1648C170.658 18.6054 171.203 17.8833 171.585 16.9984C171.976 16.0896 172.109 15.1897 171.982 14.2987C171.844 13.4025 171.497 12.594 170.943 11.8731C170.377 11.147 169.646 10.5908 168.749 10.2043C168.067 9.91061 167.391 9.76822 166.721 9.77715C166.034 9.79289 165.492 9.86448 165.097 9.99193L164.167 12.1007C164.609 11.9648 165.155 11.8813 165.806 11.8501C166.458 11.8189 167.112 11.945 167.77 12.2284C168.464 12.5273 168.97 12.9651 169.288 13.5419C169.607 14.1187 169.695 14.7378 169.551 15.3992L162.987 12.5703L162.569 13.5389C162.188 14.4238 162.026 15.2757 162.085 16.0948C162.126 16.9207 162.387 17.6641 162.867 18.325ZM167.451 18.0032C166.919 18.1851 166.372 18.155 165.81 17.9128C165.296 17.6912 164.893 17.3262 164.602 16.8179C164.305 16.3215 164.272 15.7401 164.502 15.0738L168.843 16.9442C168.447 17.4683 167.983 17.8213 167.451 18.0032ZM145.679 13.2049C144.739 12.9942 143.978 12.61 143.396 12.0525C142.801 11.4921 142.407 10.8099 142.213 10.0059C142.004 9.21183 142.005 8.34468 142.216 7.40447L142.447 6.37533L149.422 7.93907C149.44 7.26261 149.239 6.67048 148.819 6.16267C148.399 5.65487 147.821 5.31837 147.084 5.15316C146.385 4.9965 145.719 4.99385 145.084 5.14519C144.45 5.29653 143.928 5.47987 143.52 5.69519L144.043 3.45059C144.408 3.25214 144.926 3.08151 145.599 2.93871C146.256 2.80577 146.947 2.82047 147.671 2.98283C148.624 3.19646 149.446 3.60756 150.136 4.21615C150.815 4.82188 151.305 5.55225 151.607 6.40727C151.896 7.25943 151.933 8.16832 151.716 9.13393C151.505 10.0741 151.103 10.8848 150.51 11.5658C149.917 12.2468 149.2 12.7398 148.357 13.0447C147.512 13.3623 146.62 13.4157 145.679 13.2049ZM146.211 11.1023C146.808 11.2362 147.351 11.1645 147.84 10.8871C148.329 10.6098 148.72 10.177 149.012 9.58859L144.4 8.55464C144.297 9.25213 144.437 9.81732 144.821 10.2502C145.201 10.6958 145.664 10.9798 146.211 11.1023Z" fill="white"/>
</svg>
