<svg width="0" 
    height="0" 
    data-name="Layer 1" 
    xmlns="http://www.w3.org/2000/svg" 
    viewBox="0 0 1920 665">
    <g fill="none">
        <defs>
            <clipPath 
                id="header-fg-cp" 
                clipPathUnits="objectBoundingBox" 
                transform="scale(0.0005208333, 0.0015037594)">
                
                <path d="M1886.08,515c-23.9,12.34-46.06,27.43-67.73,43.27q-28.65,21-55.88,43.73c-1.26,1.06-2.42,2.31-4.28,2.87-1.63-1.53-1.06-3.64-1.22-5.5-2-23.45-7.29-46-18.26-67-10.23-19.56-23.94-36-43.56-47.46-1.69-5.15-3.38-10.54-5.2-15.88a404.5,404.5,0,0,0-30.81-69.26c-34.54-61-82.29-108.51-144.29-141.43-22.72-12.06-46.4-21.79-71.52-27.75-1.12-.27-2.22-.64-3.78-1.1-2.37-75.34-28.31-142-73.82-200.77-10.29-1.74-19.47-1.45-28.61-1.47-22.82,0-45.65-.16-68.46.17-18,.27-35.94,1.12-53.91,1.81-16.64.63-33.27,1.23-49.89,2.15-20.45,1.13-40.89,2.39-61.31,3.94C1082,37,1060.43,39,1038.87,40.86c-20.24,1.72-40.4,4.11-60.61,6-38.14,3.62-76.09,8.75-114,13.85-40.43,5.42-80.74,11.68-121,18.38q-56.9,9.48-113.52,20.54-68.15,13.22-135.86,28.5Q426.4,143.46,359.44,160.8q-112,28.81-222.39,63.13c-45.16,14-90,28.84-134.76,44.1-.78.27-1.53.64-2.29,1V666H1920V502C1908,504.46,1896.9,509.44,1886.08,515Z"/>

            </clipPath>
        </defs>
    </g>
</svg>