<svg xmlns="http://www.w3.org/2000/svg" xmlns:xlink="http://www.w3.org/1999/xlink" viewBox="0 0 581.49 342.82"><defs><style>.cls-1{fill:url(#linear-gradient);}.cls-2{opacity:0.45;fill:url(#linear-gradient-2);}</style><linearGradient id="linear-gradient" x1="49.1" y1="171.43" x2="535.82" y2="171.43" gradientUnits="userSpaceOnUse"><stop offset="0.01" stop-color="#d81b60"/><stop offset="0.5" stop-color="#6e5ba2"/><stop offset="1" stop-color="#039be5"/></linearGradient><linearGradient id="linear-gradient-2" x1="105.1" y1="66.88" x2="453.29" y2="415.07" gradientUnits="userSpaceOnUse"><stop offset="0.61" stop-color="#fff"/><stop offset="1" stop-color="#039be5"/></linearGradient></defs><g id="Layer_7" data-name="Layer 7"><path class="cls-1" d="M489.2,342.82c60.87-1.55,104-59.92,89.59-119.08C547.45,95.32,431.66,0,293.59,0,131.44,0,0,131.44,0,293.59a320,320,0,0,0,4,48.84.14.14,0,0,0,.27,0c42.43-81.54,127.36-139.22,225.63-139.22a253.34,253.34,0,0,1,148.87,48.07,26,26,0,0,1,10,14.88,100.64,100.64,0,0,0,97.73,76.66C487.45,342.86,488.32,342.85,489.2,342.82Z"/><path class="cls-2" d="M578.63,223.1C547.07,95,431.43,0,293.59,0,131.44,0,0,131.44,0,293.59a320.05,320.05,0,0,0,4.11,49.27.93.93,0,0,1,0-.1c0-1.33,0-2.67,0-4C4.11,194.75,120.84,78,264.84,78c142.58,0,258.4,114.43,260.69,256.46C566,316,590.1,269.63,578.63,223.1Z"/></g></svg>